# Blender v3.0.0 OBJ File: ''
# www.blender.org
o Plane
v -21.445362 -0.000009 17.632093
v -21.445362 -0.000009 21.445362
v -21.445362 -0.000009 21.445362
v 11.914090 -0.000009 17.632093
v 16.679726 -0.000009 21.445362
v 16.679726 -0.000009 17.632093
v 7.148454 -0.000009 21.445362
v 11.914090 -0.000009 21.445362
v 2.382818 2.844408 17.632093
v 7.148454 2.844408 17.632093
v -2.382818 2.844408 17.632093
v 2.382818 -0.000009 21.445362
v -7.148454 2.844408 17.632093
v -2.382818 -0.000009 21.445362
v -11.914090 2.844408 17.632093
v -7.148454 -0.000009 21.445362
v -16.679726 -0.000009 17.632093
v -11.914090 -0.000009 21.445362
v -16.679726 -0.000009 21.445362
v -21.445362 0.000009 -21.445362
v -16.679726 0.000009 -17.460318
v -16.679726 0.000009 -21.445362
v -21.445362 0.000009 -17.460318
v -16.679726 0.000006 -13.561161
v -21.445362 0.000006 -13.561161
v -16.679726 0.000006 -9.662004
v -21.445362 0.000006 -9.662004
v -16.679726 0.000003 -5.762846
v -21.445362 0.000003 -5.762846
v -16.679726 0.000000 -1.863690
v -21.445362 0.000000 -1.863690
v -16.679726 -0.000000 2.035467
v -21.445362 -0.000000 2.035467
v -16.679726 -0.000003 5.934624
v -21.445362 -0.000003 5.934624
v -16.679726 -0.000006 9.833780
v -21.445362 -0.000006 9.833780
v -16.679726 -0.000006 13.732936
v -21.445362 -0.000006 13.732936
v -11.914090 0.000009 -17.460318
v -11.914090 0.000009 -21.445362
v -11.836422 -2.830850 -13.195274
v -11.914090 -2.970957 5.934624
v -11.914090 -2.970954 2.035465
v -11.914090 -0.000006 9.833780
v -11.914090 2.844411 13.732936
v -7.148454 0.000009 -17.460318
v -7.148454 0.000009 -21.445362
v -7.148454 -2.970948 -13.561164
v -7.148454 -2.970948 -9.662007
v -7.148454 -2.970957 5.934624
v -7.148454 -2.970954 2.035465
v -7.148454 -0.000006 9.833780
v -7.148454 2.844411 13.732936
v -2.382818 0.000009 -17.460318
v -2.382818 0.000009 -21.445362
v -2.382818 2.239866 -13.561161
v -2.382818 2.239866 -9.662004
v -2.382818 0.000003 -5.762846
v -7.148454 -2.970951 -5.762846
v -2.382818 0.000000 -1.863690
v -7.148454 -2.970954 -1.863690
v -2.382818 -2.970954 2.035465
v -2.382818 -2.970957 5.934624
v -2.382818 -0.000006 9.833780
v -2.382818 2.844411 13.732936
v 2.382818 0.000009 -17.460318
v 2.382818 0.000009 -21.445362
v 2.382818 2.239866 -13.561161
v 2.382818 2.239866 -9.662004
v 2.382818 0.000003 -5.762846
v 2.382818 0.000000 -1.863690
v 2.382818 -2.970954 2.035465
v 2.382818 -2.970957 5.934624
v 2.382818 -0.000006 9.833780
v 2.382818 2.844411 13.732936
v 7.148454 0.000009 -17.460318
v 7.148454 0.000009 -21.445362
v 7.148454 2.239866 -13.561161
v 7.148454 2.239866 -9.662004
v 7.148454 0.000003 -5.762846
v 7.148454 0.000000 -1.863690
v 7.148454 -2.970954 2.035465
v 7.148454 -2.970957 5.934624
v 7.148454 -0.000006 9.833780
v 7.148454 2.844411 13.732936
v 11.914090 0.000009 -17.460318
v 11.914090 0.000009 -21.445362
v 11.914090 0.000006 -13.561161
v 11.914090 0.000006 -9.662004
v 11.914090 0.000003 -5.762846
v 11.914090 0.000000 -1.863690
v 11.914090 -2.970954 2.035465
v 11.914090 -2.970957 5.934624
v 11.914090 -0.000006 9.833780
v 11.914090 -0.000006 13.732936
v 16.679726 0.000009 -17.460318
v 16.679726 0.000009 -21.445362
v 16.679726 0.000006 -13.561161
v 16.679726 0.000006 -9.662004
v 16.679726 0.000003 -5.762847
v 16.679726 0.000000 -1.863690
v 16.679726 -0.000000 2.035466
v 16.679726 -0.000003 5.934624
v 16.679726 -0.000006 9.833780
v 16.679726 -0.000006 13.732936
v -21.445362 0.000009 -17.460318
v -21.445362 0.000006 -13.561161
v -21.445362 0.000006 -9.662004
v -21.445362 0.000003 -5.762846
v -21.445362 0.000000 -1.863690
v -21.445362 -0.000000 2.035467
v -21.445362 -0.000003 5.934624
v -21.445362 -0.000006 9.833780
v -21.445362 -0.000006 13.732936
v -21.445362 -0.000009 17.632093
v 21.445362 -0.000009 17.632093
v 21.445362 -0.000006 13.732936
v 21.445362 -0.000006 9.833780
v 21.445362 -0.000003 5.934623
v 21.445362 -0.000000 2.035466
v 21.445362 0.000000 -1.863691
v 21.445362 0.000003 -5.762847
v 21.445362 0.000006 -9.662004
v 21.445362 0.000006 -13.561161
v 21.445362 0.000009 -17.460318
v 21.445362 0.000009 -21.445362
v 21.445362 -0.000009 21.445362
v -21.445362 0.000009 -21.445362
v -11.988243 -2.856882 -9.051810
v -11.988243 -2.856884 -4.835411
v -11.836422 -3.830850 -13.195275
v -11.914090 -3.970954 2.035465
v -7.148454 -3.970948 -9.662007
v -7.148454 -3.970954 2.035465
v -7.148454 -3.970951 -5.762846
v -7.148454 -3.970954 -1.863690
v -11.988243 -3.856882 -9.051811
v -11.988243 -3.856884 -4.835411
vt 0.009250 0.098639
vt 0.009250 0.011081
vt 0.009250 0.011081
vt 0.775231 0.098639
vt 0.884656 0.011081
vt 0.884656 0.098639
vt 0.665805 0.011081
vt 0.775231 0.011081
vt 0.556379 0.098639
vt 0.665805 0.098639
vt 0.446953 0.098639
vt 0.556379 0.011081
vt 0.337528 0.098639
vt 0.446953 0.011081
vt 0.228102 0.098639
vt 0.337528 0.011081
vt 0.118676 0.098639
vt 0.228102 0.011081
vt 0.118676 0.011081
vt 0.009250 0.995913
vt 0.118676 0.904411
vt 0.118676 0.995913
vt 0.009250 0.904411
vt 0.118676 0.814880
vt 0.009250 0.814880
vt 0.118676 0.725350
vt 0.009250 0.725350
vt 0.118676 0.635820
vt 0.009250 0.635820
vt 0.118676 0.546290
vt 0.009250 0.546290
vt 0.118676 0.456760
vt 0.009250 0.456760
vt 0.118676 0.367230
vt 0.009250 0.367230
vt 0.118676 0.277700
vt 0.009250 0.277700
vt 0.118676 0.188170
vt 0.009250 0.188170
vt 0.228102 0.904411
vt 0.228102 0.995913
vt 0.229885 0.806479
vt 0.228102 0.367230
vt 0.228102 0.456760
vt 0.228102 0.277700
vt 0.228102 0.188170
vt 0.337528 0.904411
vt 0.337528 0.995913
vt 0.337528 0.814881
vt 0.337528 0.725350
vt 0.337528 0.367230
vt 0.337528 0.456760
vt 0.337528 0.277700
vt 0.337528 0.188170
vt 0.446953 0.904411
vt 0.446953 0.995913
vt 0.446953 0.814880
vt 0.446953 0.725350
vt 0.446953 0.635820
vt 0.337528 0.635820
vt 0.446953 0.546290
vt 0.337528 0.546290
vt 0.446953 0.456760
vt 0.446953 0.367230
vt 0.446953 0.277700
vt 0.446953 0.188170
vt 0.556379 0.904411
vt 0.556379 0.995913
vt 0.556379 0.814880
vt 0.556379 0.725350
vt 0.556379 0.635820
vt 0.556379 0.546290
vt 0.556379 0.456760
vt 0.556379 0.367230
vt 0.556379 0.277700
vt 0.556379 0.188170
vt 0.665805 0.904411
vt 0.665805 0.995913
vt 0.665805 0.814880
vt 0.665805 0.725350
vt 0.665805 0.635820
vt 0.665805 0.546290
vt 0.665805 0.456760
vt 0.665805 0.367230
vt 0.665805 0.277700
vt 0.665805 0.188170
vt 0.775231 0.904411
vt 0.775231 0.995913
vt 0.775231 0.814880
vt 0.775231 0.725350
vt 0.775231 0.635820
vt 0.775231 0.546290
vt 0.775231 0.456760
vt 0.775231 0.367230
vt 0.775231 0.277700
vt 0.775231 0.188170
vt 0.884656 0.904411
vt 0.884656 0.995913
vt 0.884656 0.814880
vt 0.884656 0.725350
vt 0.884656 0.635820
vt 0.884656 0.546290
vt 0.884656 0.456760
vt 0.884656 0.367230
vt 0.884656 0.277700
vt 0.884656 0.188170
vt 0.009250 0.904411
vt 0.009250 0.814880
vt 0.009250 0.725350
vt 0.009250 0.635820
vt 0.009250 0.546290
vt 0.009250 0.456760
vt 0.009250 0.367230
vt 0.009250 0.277700
vt 0.009250 0.188170
vt 0.009250 0.098639
vt 0.994082 0.098639
vt 0.994082 0.188170
vt 0.994082 0.277700
vt 0.994082 0.367230
vt 0.994082 0.456760
vt 0.994082 0.546290
vt 0.994082 0.635820
vt 0.994082 0.725350
vt 0.994082 0.814880
vt 0.994082 0.904411
vt 0.994082 0.995913
vt 0.994082 0.011081
vt 0.009250 0.995913
vt 0.226399 0.614525
vt 0.226399 0.711340
vt 0.229885 0.806479
vt 0.337528 0.725350
vt 0.226399 0.614525
vt 0.226399 0.711340
vt 0.337528 0.635820
vt 0.337528 0.546290
vt 0.337528 0.456760
vt 0.228102 0.456760
vn 0.0000 0.0000 0.0000
vn 0.0000 1.0000 0.0000
vn 0.0000 0.8016 0.5979
vn -0.4316 0.7231 0.5394
vn 0.4442 0.7126 0.5430
vn 0.4990 0.6828 0.5337
vn 0.5760 0.5951 0.5604
vn 0.5290 0.8486 0.0000
vn 0.4390 0.8752 -0.2034
vn 0.4443 0.7126 -0.5430
vn -0.4343 0.7277 -0.5309
vn -0.5125 0.8587 0.0000
vn 0.0000 0.7954 0.6061
vn 0.0000 0.7954 -0.6061
vn 0.0000 0.8079 -0.5893
vn 0.0000 0.8671 -0.4981
vn -0.7379 0.6749 0.0000
vn -0.6880 0.6292 0.3615
vn -0.5290 0.8486 0.0000
vn -0.4443 0.7126 0.5430
vn 0.0000 0.8671 0.4981
vn 0.4254 0.9050 0.0000
vn 0.5125 0.8587 0.0000
vn 0.4316 0.7231 0.5394
vn 0.5606 0.7888 -0.2521
vn -0.6562 0.6002 0.4573
vn 0.3774 0.8030 -0.4613
vn 0.3774 0.8030 0.4613
vn 0.4343 0.7277 -0.5309
vn -0.4443 0.7126 -0.5430
vn 0.4909 0.8585 -0.1485
vn 0.5052 0.8593 -0.0805
vn 0.5075 0.8616 0.0107
vn 0.5164 0.8563 0.0136
vn -0.8941 0.0115 0.4477
vn 0.3709 -0.1014 0.9231
vn -0.8957 -0.0115 0.4446
vn 0.9999 -0.0030 0.0161
vn 0.4921 0.1188 0.8624
vn 0.7546 -0.0139 -0.6561
vn 0.9873 0.0286 -0.1562
vn 0.9889 -0.0308 0.1451
vn 0.9998 0.0030 0.0205
vn -1.0000 0.0000 0.0000
vn -0.7071 0.0000 -0.7071
vn 0.6479 0.0154 -0.7616
s 1
f 1/1/1 2/2/1 3/3/1
f 4/4/2 5/5/2 6/6/2
f 4/4/2 7/7/2 8/8/2
f 9/9/3 7/7/3 10/10/3
f 11/11/3 12/12/3 9/9/3
f 13/13/3 14/14/3 11/11/3
f 15/15/3 16/16/3 13/13/3
f 17/17/4 18/18/4 15/15/4
f 1/1/2 19/19/2 17/17/2
f 20/20/2 21/21/2 22/22/2
f 23/23/2 24/24/2 21/21/2
f 25/25/2 26/26/2 24/24/2
f 27/27/2 28/28/2 26/26/2
f 29/29/2 30/30/2 28/28/2
f 31/31/2 32/32/2 30/30/2
f 33/33/2 34/34/2 32/32/2
f 35/35/2 36/36/2 34/34/2
f 37/37/2 38/38/2 36/36/2
f 39/39/2 17/17/2 38/38/2
f 22/22/2 40/40/2 41/41/2
f 40/40/5 24/24/6 42/42/7
f 32/32/8 43/43/8 44/44/9
f 34/34/10 45/45/10 43/43/10
f 45/45/11 38/38/11 46/46/11
f 38/38/12 15/15/12 46/46/12
f 41/41/2 47/47/2 48/48/2
f 40/40/13 49/49/13 47/47/13
f 42/42/2 50/50/2 49/49/2
f 44/44/2 51/51/2 52/52/2
f 43/43/14 53/53/14 51/51/14
f 45/45/15 54/54/15 53/53/15
f 46/46/2 13/13/2 54/54/2
f 48/48/2 55/55/2 56/56/2
f 47/47/16 57/57/16 55/55/16
f 49/49/17 58/58/17 57/57/17
f 50/50/18 59/59/18 58/58/18
f 60/60/19 61/61/19 59/59/19
f 62/62/20 63/63/20 61/61/20
f 52/52/2 64/64/2 63/63/2
f 51/51/14 65/65/14 64/64/14
f 53/53/15 66/66/15 65/65/15
f 54/54/2 11/11/2 66/66/2
f 56/56/2 67/67/2 68/68/2
f 55/55/16 69/69/16 67/67/16
f 57/57/2 70/70/2 69/69/2
f 58/58/21 71/71/21 70/70/21
f 59/59/2 72/72/2 71/71/2
f 61/61/13 73/73/13 72/72/13
f 63/63/2 74/74/2 73/73/2
f 64/64/14 75/75/14 74/74/14
f 65/65/15 76/76/15 75/75/15
f 66/66/2 9/9/2 76/76/2
f 68/68/2 77/77/2 78/78/2
f 67/67/16 79/79/16 77/77/16
f 69/69/2 80/80/2 79/79/2
f 70/70/21 81/81/21 80/80/21
f 71/71/2 82/82/2 81/81/2
f 72/72/13 83/83/13 82/82/13
f 73/73/2 84/84/2 83/83/2
f 74/74/14 85/85/14 84/84/14
f 75/75/15 86/86/15 85/85/15
f 76/76/2 10/10/2 86/86/2
f 78/78/2 87/87/2 88/88/2
f 77/77/2 89/89/2 87/87/2
f 79/79/22 90/90/22 89/89/22
f 90/90/2 81/81/2 91/91/2
f 81/81/2 92/92/2 91/91/2
f 82/82/13 93/93/13 92/92/13
f 83/83/2 94/94/2 93/93/2
f 84/84/14 95/95/14 94/94/14
f 85/85/2 96/96/2 95/95/2
f 86/86/23 4/4/23 96/96/23
f 88/88/2 97/97/2 98/98/2
f 87/87/2 99/99/2 97/97/2
f 89/89/2 100/100/2 99/99/2
f 90/90/2 101/101/2 100/100/2
f 91/91/2 102/102/2 101/101/2
f 92/92/2 103/103/2 102/102/2
f 93/93/19 104/104/19 103/103/19
f 104/104/2 95/95/2 105/105/2
f 95/95/2 106/106/2 105/105/2
f 96/96/2 6/6/2 106/106/2
f 20/20/1 107/107/1 23/23/1
f 23/23/1 108/108/1 25/25/1
f 25/25/1 109/109/1 27/27/1
f 27/27/1 110/110/1 29/29/1
f 29/29/1 111/111/1 31/31/1
f 31/31/1 112/112/1 33/33/1
f 33/33/1 113/113/1 35/35/1
f 35/35/1 114/114/1 37/37/1
f 37/37/1 115/115/1 39/39/1
f 39/39/1 116/116/1 1/1/1
f 106/106/2 117/117/2 118/118/2
f 105/105/2 118/118/2 119/119/2
f 104/104/2 119/119/2 120/120/2
f 103/103/2 120/120/2 121/121/2
f 102/102/2 121/121/2 122/122/2
f 101/101/2 122/122/2 123/123/2
f 100/100/2 123/123/2 124/124/2
f 99/99/2 124/124/2 125/125/2
f 97/97/2 125/125/2 126/126/2
f 98/98/2 126/126/2 127/127/2
f 6/6/2 128/128/2 117/117/2
f 1/1/1 116/116/1 2/2/1
f 4/4/2 8/8/2 5/5/2
f 4/4/24 10/10/24 7/7/24
f 9/9/3 12/12/3 7/7/3
f 11/11/3 14/14/3 12/12/3
f 13/13/3 16/16/3 14/14/3
f 15/15/3 18/18/3 16/16/3
f 17/17/2 19/19/2 18/18/2
f 1/1/2 3/3/2 19/19/2
f 20/20/2 23/23/2 21/21/2
f 23/23/2 25/25/2 24/24/2
f 25/25/2 27/27/2 26/26/2
f 27/27/2 29/29/2 28/28/2
f 29/29/2 31/31/2 30/30/2
f 31/31/2 33/33/2 32/32/2
f 33/33/2 35/35/2 34/34/2
f 35/35/2 37/37/2 36/36/2
f 37/37/2 39/39/2 38/38/2
f 39/39/2 1/1/2 17/17/2
f 22/22/2 21/21/2 40/40/2
f 40/40/2 21/21/2 24/24/2
f 30/30/25 32/32/8 44/44/9
f 32/32/8 34/34/8 43/43/8
f 34/34/2 36/36/2 45/45/2
f 45/45/2 36/36/2 38/38/2
f 38/38/12 17/17/12 15/15/12
f 41/41/2 40/40/2 47/47/2
f 40/40/13 42/42/13 49/49/13
f 44/44/2 43/43/2 51/51/2
f 43/43/14 45/45/14 53/53/14
f 45/45/15 46/46/15 54/54/15
f 46/46/2 15/15/2 13/13/2
f 48/48/2 47/47/2 55/55/2
f 47/47/26 49/49/26 57/57/26
f 49/49/17 50/50/17 58/58/17
f 50/50/19 60/60/19 59/59/19
f 60/60/19 62/62/19 61/61/19
f 62/62/2 52/52/2 63/63/2
f 52/52/2 51/51/2 64/64/2
f 51/51/14 53/53/14 65/65/14
f 53/53/15 54/54/15 66/66/15
f 54/54/2 13/13/2 11/11/2
f 56/56/2 55/55/2 67/67/2
f 55/55/16 57/57/16 69/69/16
f 57/57/2 58/58/2 70/70/2
f 58/58/21 59/59/21 71/71/21
f 59/59/2 61/61/2 72/72/2
f 61/61/13 63/63/13 73/73/13
f 63/63/2 64/64/2 74/74/2
f 64/64/14 65/65/14 75/75/14
f 65/65/15 66/66/15 76/76/15
f 66/66/2 11/11/2 9/9/2
f 68/68/2 67/67/2 77/77/2
f 67/67/16 69/69/16 79/79/16
f 69/69/2 70/70/2 80/80/2
f 70/70/21 71/71/21 81/81/21
f 71/71/2 72/72/2 82/82/2
f 72/72/13 73/73/13 83/83/13
f 73/73/2 74/74/2 84/84/2
f 74/74/14 75/75/14 85/85/14
f 75/75/15 76/76/15 86/86/15
f 76/76/2 9/9/2 10/10/2
f 78/78/2 77/77/2 87/87/2
f 77/77/27 79/79/27 89/89/27
f 79/79/22 80/80/22 90/90/22
f 90/90/28 80/80/28 81/81/28
f 81/81/2 82/82/2 92/92/2
f 82/82/13 83/83/13 93/93/13
f 83/83/2 84/84/2 94/94/2
f 84/84/14 85/85/14 95/95/14
f 85/85/29 86/86/29 96/96/29
f 86/86/23 10/10/23 4/4/23
f 88/88/2 87/87/2 97/97/2
f 87/87/2 89/89/2 99/99/2
f 89/89/2 90/90/2 100/100/2
f 90/90/2 91/91/2 101/101/2
f 91/91/2 92/92/2 102/102/2
f 92/92/20 93/93/20 103/103/20
f 93/93/19 94/94/19 104/104/19
f 104/104/30 94/94/30 95/95/30
f 95/95/2 96/96/2 106/106/2
f 96/96/2 4/4/2 6/6/2
f 20/20/1 129/129/1 107/107/1
f 23/23/1 107/107/1 108/108/1
f 25/25/1 108/108/1 109/109/1
f 27/27/1 109/109/1 110/110/1
f 29/29/1 110/110/1 111/111/1
f 31/31/1 111/111/1 112/112/1
f 33/33/1 112/112/1 113/113/1
f 35/35/1 113/113/1 114/114/1
f 37/37/1 114/114/1 115/115/1
f 39/39/1 115/115/1 116/116/1
f 106/106/2 6/6/2 117/117/2
f 105/105/2 106/106/2 118/118/2
f 104/104/2 105/105/2 119/119/2
f 103/103/2 104/104/2 120/120/2
f 102/102/2 103/103/2 121/121/2
f 101/101/2 102/102/2 122/122/2
f 100/100/2 101/101/2 123/123/2
f 99/99/2 100/100/2 124/124/2
f 97/97/2 99/99/2 125/125/2
f 98/98/2 97/97/2 126/126/2
f 6/6/2 5/5/2 128/128/2
f 30/30/25 131/130/31 28/28/32
f 26/26/33 42/42/7 24/24/6
f 28/28/32 130/131/34 26/26/33
f 50/50/35 132/132/36 134/133/37
f 130/131/38 132/132/36 42/42/39
f 44/44/40 139/134/41 131/130/42
f 131/130/42 138/135/43 130/131/38
f 60/60/44 134/133/37 136/136/44
f 60/60/44 137/137/44 62/62/44
f 62/62/44 135/138/45 52/52/45
f 52/52/45 133/139/46 44/44/40
f 30/30/25 44/44/9 131/130/31
f 26/26/33 130/131/34 42/42/7
f 28/28/32 131/130/31 130/131/34
f 50/50/35 42/42/39 132/132/36
f 130/131/38 138/135/43 132/132/36
f 44/44/40 133/139/46 139/134/41
f 131/130/42 139/134/41 138/135/43
f 60/60/44 50/50/35 134/133/37
f 60/60/44 136/136/44 137/137/44
f 62/62/44 137/137/44 135/138/45
f 52/52/45 135/138/45 133/139/46
o Plane.001
v 1.079892 3.229123 -9.277332
v -2.298980 2.173896 -10.539386
v -2.298980 3.229123 -9.277332
v 1.079892 3.229123 -6.277334
v -2.298980 3.229123 -6.277334
v 1.079892 4.229123 -4.277334
v -2.298980 4.229123 -4.277334
v 1.079892 4.229123 -4.277334
v 1.079892 4.263194 13.060925
v -2.298980 4.263194 13.060925
v 1.074506 2.781308 15.271543
v 1.079892 2.173896 -10.539386
v -2.298980 4.229123 -4.277334
v -2.304366 2.781308 15.271543
vt 0.000127 0.061143
vt 0.074436 0.000036
vt 0.074428 0.061152
vt 0.000114 0.172595
vt 0.074415 0.172604
vt 0.000104 0.255667
vt 0.074405 0.256972
vt 0.000104 0.256963
vt 0.000027 0.901092
vt 0.074329 0.901101
vt 0.000134 0.999964
vt 0.000134 0.000027
vt 0.074405 0.255675
vt 0.074436 0.999973
vn 0.0000 0.7672 -0.6414
vn 0.0000 1.0000 0.0000
vn 0.0000 0.8944 -0.4472
vn 0.0000 0.0000 1.0000
vn 0.0000 1.0000 -0.0020
vn 0.0000 0.8306 0.5568
s off
f 140/140/47 141/141/47 142/142/47
f 142/142/48 143/143/48 140/140/48
f 144/144/49 145/145/49 143/143/49
f 145/145/50 146/146/50 147/147/50
f 146/146/51 148/148/51 147/147/51
f 149/149/52 150/150/52 148/148/52
f 140/140/47 151/151/47 141/141/47
f 142/142/48 144/144/48 143/143/48
f 144/144/49 152/152/49 145/145/49
f 145/145/50 152/152/50 146/146/50
f 146/146/51 149/149/51 148/148/51
f 149/149/52 153/153/52 150/150/52
o Plane.002
v 3.183230 -0.281440 10.323142
v -2.114750 -0.281436 -2.241791
v -2.114750 -0.281440 10.323142
v 3.183230 -0.281436 -2.241791
vt 0.000040 0.999960
vt 0.159200 0.000040
vt 0.159200 0.999960
vt 0.000040 0.000040
vn 0.0000 1.0000 0.0000
s off
f 154/154/53 155/155/53 156/156/53
f 154/154/53 157/157/53 155/155/53
